# xmcd CD database file
#
# Track frame offsets:
#	150
#	18550
#	31506
#	47126
#	65250
#	77758
#	92760
#	113266
#	133043
#	148263
#	164260
#	176592
#	195763
#	217638
#	232303
#	250928
#	266782
#	282497
#	301600
#	326412
#
# Disc length: 4668 seconds
#
# Revision: 0
# Processed by: cddbd v1.5.2PL0 Copyright (c) Steve Scherf et al.
# Submitted via: CDex 1.51
#
DISCID=0b123a14
DTITLE=Brad Paisley - (2009) Favorites
DYEAR=2009
DGENRE=Country
TTITLE0=All I Wanted Was A Car
TTITLE1=Huckleberry Jam
TTITLE2=Mud On The Tires
TTITLE3=The World
TTITLE4=Two Feet Of Topsoil
TTITLE5=Me Neither
TTITLE6=Ticks
TTITLE7=I'll Take You Back
TTITLE8=Wrapped Around
TTITLE9=You Need A Man Around Here
TTITLE10=Kentucky Jelly
TTITLE11=Mr. Policeman
TTITLE12=Playing With Fire
TTITLE13=Munster Rag
TTITLE14=The Best Thing I Had Goin
TTITLE15=Cluster Pluck
TTITLE16=The Nervous Breakdown
TTITLE17=Easy Money
TTITLE18=Let The Good Times Roll
TTITLE19=Throttleneck
EXTD=YEAR: 2009
EXTT0=
EXTT1=
EXTT2=
EXTT3=
EXTT4=
EXTT5=
EXTT6=
EXTT7=
EXTT8=
EXTT9=
EXTT10=
EXTT11=
EXTT12=
EXTT13=
EXTT14=
EXTT15=
EXTT16=
EXTT17=
EXTT18=
EXTT19=
PLAYORDER=
